<?xml version="1.0" encoding="utf-8"?>
<!-- Generator: Adobe Illustrator 16.0.0, SVG Export Plug-In . SVG Version: 6.00 Build 0)  -->
<!DOCTYPE svg PUBLIC "-//W3C//DTD SVG 1.1//EN" "http://www.w3.org/Graphics/SVG/1.1/DTD/svg11.dtd">
<svg version="1.1" id="Layer_1" xmlns="http://www.w3.org/2000/svg" xmlns:xlink="http://www.w3.org/1999/xlink" x="0px" y="0px"
	 width="197px" height="197px" viewBox="0 0 197 197" enable-background="new 0 0 197 197" xml:space="preserve">
<path fill="#E91B8C" d="M184.835,101.163c0,14.675-0.055,29.349,0.05,44.021c0.02,2.597-0.613,4.152-3.045,5.546
	c-25.859,14.798-51.626,29.758-77.429,44.65c-4.306,2.485-4.34,2.445-4.35-2.5c-0.01-6.557,0.181-13.119-0.076-19.668
	c-0.132-3.38,0.941-5.319,3.946-7.021c17.236-9.769,34.317-19.808,51.525-29.617c2.485-1.416,3.398-2.979,3.378-5.863
	c-0.135-19.825-0.014-39.652-0.135-59.479c-0.017-2.849,0.797-4.538,3.34-5.919c6.441-3.498,12.788-7.177,19.048-10.989
	c3.222-1.961,3.826-1.057,3.799,2.344C184.767,71.5,184.835,86.333,184.835,101.163z"/>
<path fill="#F7C424" d="M12.2,101.167c0.001-14.831,0.088-29.662-0.06-44.489c-0.038-3.679,0.857-4.026,3.847-2.21
	c6.132,3.727,12.326,7.368,18.648,10.755c2.747,1.471,3.556,3.284,3.533,6.312c-0.133,19.669,0.012,39.339-0.152,59.007
	c-0.025,3.11,1.009,4.756,3.625,6.242c16.811,9.568,33.464,19.427,50.354,28.858c3.84,2.144,5.15,4.581,4.917,8.813
	c-0.343,6.226-0.313,12.495-0.014,18.726c0.217,4.537-1.198,4.077-4.301,2.269c-24.133-14.06-48.192-28.264-72.62-41.796
	c-6.208-3.438-8.309-7.146-7.962-14.094C12.651,126.793,12.199,113.968,12.2,101.167z"/>
<path fill="#30ABE2" d="M182.432,49.451c-7.882,4.583-15.345,8.789-22.655,13.245c-2.254,1.374-3.77,0.386-5.528-0.632
	c-17.001-9.839-34.072-19.553-50.95-29.596c-3.604-2.143-6.212-2.033-9.735,0.049C76.519,42.585,59.305,52.375,42.174,62.294
	c-1.53,0.886-2.804,1.669-4.679,0.549c-7.476-4.467-15.038-8.792-23.439-13.675c5.797-3.355,10.964-6.354,16.141-9.34
	c21.741-12.541,43.492-25.063,65.21-37.645c1.836-1.064,3.213-1.757,5.464-0.446c26.67,15.538,53.425,30.933,80.146,46.381
	C181.383,48.328,181.653,48.707,182.432,49.451z"/>
<path fill="#FFFFFF" d="M100.449,58.794c0.313,0.954,0.525,1.457,0.644,1.981c2.389,10.778,7.606,20.011,15.183,27.984
	c3.822,4.025,6.997,8.49,8.42,13.962c4.051,15.605-9.111,30.96-25.69,30.002c-19.114-1.1-29.582-21.439-19.349-37.591
	c1.307-2.062,2.779-4.002,4.471-5.756c7.918-8.208,13.414-17.726,15.792-28.949C99.997,60.049,100.154,59.688,100.449,58.794z"/>
</svg>
