<?xml version="1.0" encoding="utf-8"?>
<!-- Generator: Adobe Illustrator 16.0.0, SVG Export Plug-In . SVG Version: 6.00 Build 0)  -->
<!DOCTYPE svg PUBLIC "-//W3C//DTD SVG 1.1//EN" "http://www.w3.org/Graphics/SVG/1.1/DTD/svg11.dtd">
<svg version="1.1" id="Layer_1" xmlns="http://www.w3.org/2000/svg" xmlns:xlink="http://www.w3.org/1999/xlink" x="0px" y="0px"
	 width="750px" height="200px" viewBox="0 0 750 200" enable-background="new 0 0 750 200" xml:space="preserve">
<g>
	<path fill="#FFFFFF" d="M274.26,106.436h20.681c-1.809,10.982-6.419,19.89-13.832,26.715c-7.414,6.779-17.064,10.17-28.953,10.17
		c-13.788,0-24.816-4.497-33.088-13.493c-8.272-9.04-12.408-22.036-12.408-38.987c0-16.228,4.113-29.021,12.34-38.377
		c8.227-9.401,19.392-14.104,33.495-14.104c11.707,0,21.335,3.143,28.885,9.425c7.594,6.238,12.114,15.03,13.561,26.376H274.26
		c-1.808-6.374-4.385-10.917-7.729-13.628c-3.346-2.757-7.865-4.136-13.561-4.136c-7.911,0-14.103,3.097-18.578,9.289
		c-4.475,6.148-6.713,14.714-6.713,25.698c0,9.991,2.057,18.15,6.17,24.479c4.113,6.283,10.238,9.425,18.375,9.425
		c4.791,0,9.198-1.267,13.222-3.798C269.469,118.956,272.406,113.938,274.26,106.436z"/>
	<path fill="#FFFFFF" d="M295.772,140.743l35.801-99.808h23.935l35.801,99.808h-22.646l-6.441-20.816h-37.428l-7.052,20.816H295.772
		z M330.556,102.434h25.495l-12.544-38.852L330.556,102.434z"/>
	<path fill="#FFFFFF" d="M410.719,109.688c0.586,10.94,7.73,16.41,21.426,16.41c13.199,0,19.8-4.228,19.8-12.681
		c0-5.379-4.634-9.198-13.9-11.459l-24.477-6.238c-7.504-1.808-13.019-4.859-16.545-9.154c-3.525-4.294-5.29-10.012-5.29-17.154
		c0-9.13,3.277-16.589,9.833-22.375c6.555-5.786,16.024-8.679,28.409-8.679c11.392,0,20.521,2.78,27.394,8.34
		c6.871,5.56,10.668,13.629,11.393,24.207h-20.069c-1.492-10.215-8.138-15.324-19.937-15.324c-5.379,0-9.674,1.04-12.883,3.119
		c-3.164,2.08-4.746,4.928-4.746,8.543c0,2.622,0.814,4.814,2.441,6.577c1.672,1.763,4.34,3.097,8,4l24.274,5.967
		c9.988,2.396,16.838,5.763,20.545,10.103c3.75,4.34,5.627,10.012,5.627,17.019c0,9.628-3.436,17.448-10.307,23.46
		c-6.826,5.967-16.748,8.949-29.766,8.949c-12.16,0-22.082-2.848-29.767-8.543c-7.686-5.739-11.526-14.104-11.526-25.088H410.719z"
		/>
	<path fill="#FFFFFF" d="M480.576,140.743V40.935h49.293c9.176,0,16.635,2.305,22.375,6.916c5.787,4.566,8.68,10.984,8.68,19.256
		c0,9.584-4.092,16.161-12.272,19.731c10.352,4.159,15.526,12.024,15.526,23.596c-0.678,10.127-4.045,17.721-10.102,22.782
		c-6.06,5.019-16.297,7.526-30.717,7.526L480.576,140.743L480.576,140.743z M501.256,79.855h24.748c9.9,0,14.85-3.729,14.85-11.188
		c0-6.825-5.151-10.238-15.459-10.238h-24.139V79.855z M501.256,123.25h26.105c10.756,0,16.137-4.725,16.137-14.172
		c0-8.361-5.063-12.543-15.188-12.543h-27.056L501.256,123.25L501.256,123.25z"/>
	<path fill="#FFFFFF" d="M565.213,140.743l35.801-99.808h23.937l35.801,99.808h-22.646l-6.441-20.816h-37.43l-7.052,20.816H565.213z
		 M599.996,102.434h25.494l-12.543-38.852L599.996,102.434z"/>
	<path fill="#FFFFFF" d="M749.455,140.743h-22.986c-1.399-5.379-2.146-11.277-2.235-17.697l-0.138-7.458
		c-0.09-4.972-1.197-8.521-3.322-10.646c-2.125-2.123-6.44-3.187-12.95-3.187H685.99v38.987H665.31V40.935h50.921
		c9.584,0,17.243,2.6,22.985,7.797c5.74,5.153,8.611,12.137,8.611,20.952c0,11.255-5.178,19.077-15.527,23.46
		c5.604,2.215,9.107,5.267,10.511,9.153c1.399,3.889,2.102,9.969,2.102,18.239v4.001c0,3.797,0.248,6.826,0.746,9.086
		c0.543,2.215,1.807,3.686,3.797,4.406V140.743z M726.809,71.718c0-8.859-4.883-13.29-14.646-13.29H685.99v26.647h24.545
		C721.385,85.076,726.809,80.624,726.809,71.718z"/>
</g>
<path fill="#EA188C" d="M176.835,103.617c0,14.759-0.056,29.516,0.05,44.271c0.02,2.611-0.617,4.176-3.063,5.577
	c-26.006,14.882-51.918,29.927-77.867,44.904c-4.33,2.499-4.365,2.459-4.375-2.515c-0.01-6.594,0.181-13.193-0.076-19.779
	c-0.133-3.399,0.946-5.35,3.969-7.061c17.333-9.824,34.511-19.92,51.817-29.785c2.5-1.424,3.418-2.996,3.398-5.896
	c-0.136-19.938-0.014-39.877-0.136-59.816c-0.017-2.865,0.802-4.563,3.358-5.952c6.478-3.518,12.862-7.218,19.157-11.052
	c3.239-1.972,3.847-1.063,3.82,2.357C176.766,73.787,176.835,88.703,176.835,103.617z"/>
<path fill="#F7C424" d="M3.221,103.622c0.001-14.915,0.089-29.83-0.06-44.742c-0.038-3.7,0.862-4.049,3.869-2.223
	c6.167,3.748,12.396,7.41,18.754,10.816c2.763,1.479,3.576,3.303,3.553,6.348c-0.134,19.78,0.012,39.562-0.153,59.341
	c-0.025,3.128,1.015,4.783,3.646,6.277c16.907,9.623,33.654,19.537,50.639,29.022c3.862,2.155,5.18,4.606,4.945,8.862
	c-0.345,6.261-0.314,12.566-0.014,18.832c0.218,4.563-1.205,4.1-4.326,2.281c-24.27-14.14-48.465-28.424-73.031-42.033
	c-6.243-3.457-8.356-7.186-8.008-14.174C3.675,129.393,3.219,116.495,3.221,103.622z"/>
<path fill="#2FABE1" d="M174.418,51.612c-7.927,4.609-15.431,8.839-22.784,13.32c-2.267,1.382-3.791,0.389-5.56-0.635
	c-17.097-9.895-34.266-19.664-51.239-29.764c-3.624-2.155-6.247-2.044-9.79,0.05c-17.141,10.125-34.452,19.97-51.68,29.946
	c-1.539,0.891-2.82,1.678-4.706,0.552c-7.518-4.492-15.123-8.842-23.572-13.753c5.83-3.374,11.026-6.39,16.233-9.393
	C43.184,29.323,65.058,16.73,86.9,4.076c1.846-1.07,3.231-1.767,5.494-0.448c26.822,15.626,53.728,31.109,80.602,46.644
	C173.363,50.483,173.635,50.864,174.418,51.612z"/>
<path fill="#FFFFFF" d="M91.97,61.009c0.315,0.959,0.529,1.465,0.647,1.992c2.403,10.839,7.65,20.124,15.269,28.143
	c3.844,4.048,7.037,8.538,8.467,14.042c4.075,15.693-9.161,31.135-25.835,30.172c-19.222-1.106-29.75-21.562-19.459-37.804
	c1.314-2.073,2.795-4.025,4.496-5.789c7.963-8.254,13.49-17.826,15.882-29.113C91.516,62.271,91.674,61.907,91.97,61.009z"/>
</svg>
